/* XPM */
static char *_0aa9db366394528b698edead683b083M3pggtFeBU2LB8iW[] = {
/* columns rows colors chars-per-pixel */
"64 64 222 2 ",
"   c #057906",
".  c #0C7B0C",
"X  c #067A09",
"o  c #147D14",
"O  c #1B7D1B",
"+  c #107B0E",
"@  c #DF1F1F",
"#  c #ED0C0C",
"$  c #EE0807",
"%  c #F40404",
"&  c #FA0101",
"*  c #F20807",
"=  c #F10B0B",
"-  c #F40708",
";  c #EE100E",
":  c #E61515",
">  c #EB1312",
",  c #E51C1C",
"<  c #EA1B1B",
"1  c #E81917",
"2  c #E80F10",
"3  c #DD201F",
"4  c #E3211E",
"5  c #E41F21",
"6  c #DC2524",
"7  c #DD2C2C",
"8  c #D4292A",
"9  c #DD302F",
"0  c #DB3332",
"q  c #D53D3C",
"w  c #DC3B3B",
"e  c #D83434",
"r  c #DD2F30",
"t  c #E32323",
"y  c #E92525",
"u  c #E32B2B",
"i  c #E72829",
"p  c #E1312F",
"a  c #E33333",
"s  c #E63A3B",
"d  c #DC403E",
"f  c #D6413D",
"g  c #D83F40",
"h  c #D44443",
"j  c #DB4544",
"k  c #D54C4C",
"l  c #DD4B4A",
"z  c #D94847",
"x  c #DF504E",
"c  c #CF5958",
"v  c #D45353",
"b  c #DB5454",
"n  c #DD5C5C",
"m  c #D65A59",
"M  c #CE4647",
"N  c #E24545",
"B  c #EA4444",
"V  c #E24B4B",
"C  c #E74A48",
"Z  c #E45454",
"A  c #E55B5B",
"S  c #E95957",
"D  c #E4524F",
"F  c #DD605C",
"G  c #D95F60",
"H  c #CE6466",
"J  c #D46563",
"K  c #DC6463",
"L  c #DD6B6B",
"P  c #D66C69",
"I  c #D97777",
"U  c #E36464",
"Y  c #E36C6C",
"T  c #E96363",
"R  c #E27C7B",
"E  c #E67877",
"W  c #E66E71",
"Q  c #1C821C",
"!  c #178116",
"~  c #21841F",
"^  c #1F8520",
"/  c #238524",
"(  c #258924",
")  c #2C8A2C",
"_  c #2B862B",
"`  c #2F8B31",
"'  c #338B33",
"]  c #3A8D3A",
"[  c #378E38",
"{  c #3D933C",
"}  c #379136",
"|  c #408D3E",
" . c #439443",
".. c #49984A",
"X. c #549C54",
"o. c #599E59",
"O. c #589F57",
"+. c #509950",
"@. c #5CA35C",
"#. c #58A056",
"$. c #61A45E",
"%. c #5FA460",
"&. c #63A563",
"*. c #65A965",
"=. c #6BAA6C",
"-. c #68A669",
";. c #70AB6F",
":. c #73AD73",
">. c #7AAC79",
",. c #7DB47C",
"<. c #74B372",
"1. c #D7807F",
"2. c #E3807D",
"3. c #9B9993",
"4. c #A29E97",
"5. c #83B583",
"6. c #8BB68B",
"7. c #8CBB8C",
"8. c #85BA85",
"9. c #92BC93",
"0. c #A7A59F",
"q. c #AAA7A1",
"w. c #B1AEA7",
"e. c #B5B0A7",
"r. c #B5B2AB",
"t. c #BBB7AD",
"y. c #BDBAB3",
"u. c #BAB8B4",
"i. c #DA8786",
"p. c #DC9B9A",
"a. c #E38B8A",
"s. c #EA8989",
"d. c #EC9292",
"f. c #ED9B9B",
"g. c #E59894",
"h. c #F19A9A",
"j. c #DFA19F",
"k. c #ECA09E",
"l. c #E99FA0",
"z. c #C2BDB4",
"x. c #C1BEB9",
"c. c #DFACAB",
"v. c #E3A5A4",
"b. c #EBA4A3",
"n. c #EAAAA7",
"m. c #E9AAA9",
"M. c #E7B1AF",
"N. c #EBB4B3",
"B. c #ECBAB7",
"V. c #ECBEBD",
"C. c #E6B7B7",
"Z. c #F0ABAB",
"A. c #9BC49C",
"S. c #95C195",
"D. c #A0C89F",
"F. c #A1C5A1",
"G. c #A4CAA3",
"H. c #ACCCAC",
"J. c #A8CBA8",
"K. c #AED0AD",
"L. c #B8CAB6",
"P. c #B4D3B4",
"I. c #BAD5BA",
"U. c #BAD9BA",
"Y. c #CBC6BE",
"T. c #CECABE",
"R. c #C3C1B9",
"E. c #D0CBBF",
"W. c #F0C0BE",
"Q. c #CDCBC5",
"!. c #CECECA",
"~. c #C6C4C0",
"^. c #D2CDC3",
"/. c #D2CFC8",
"(. c #C5DCC4",
"). c #C6DCC5",
"_. c #D6D1C6",
"`. c #DBD5CB",
"'. c #DED9CE",
"]. c #D5D3CB",
"[. c #DAD7D1",
"{. c #DDDAD3",
"}. c #DEDDDA",
"|. c #D6D6D5",
" X c #EDC5C4",
".X c #ECC9C8",
"XX c #F2C5C3",
"oX c #F2CBCA",
"OX c #E1DACE",
"+X c #E4DED2",
"@X c #EAD6D4",
"#X c #F2D4D4",
"$X c #F4DDDB",
"%X c #CCE2CC",
"&X c #D3E4D4",
"*X c #DCEADB",
"=X c #DBE3DA",
"-X c #E6E0D4",
";X c #E3E2DD",
":X c #F3E0DE",
">X c #DFEEE0",
",X c #E6E5E4",
"<X c #E3EDE2",
"1X c #EAE9E5",
"2X c #EDEDEA",
"3X c #E8E7E3",
"4X c #F5E3E2",
"5X c #F5EDEB",
"6X c #F8EFEF",
"7X c #EBF3EB",
"8X c #E6F1E6",
"9X c #F2F1EE",
"0X c #F9F1EE",
"qX c #F6F6F5",
"wX c #F4F4F2",
"eX c #F9F4F4",
"rX c #F5F9F5",
"tX c #F9F9F6",
"yX c #FAFAF9",
"uX c #FEFEFE",
"iX c #F7FCF8",
"pX c #EFF6F0",
/* pixels */
"-X-X-X-X-X-X-X-X-X-X-X-X-X-X-X-X-X-X-X-X-X-X-X-X-X-X-X-X-X-X-X-X-X-X-X-X-X-X-X-X-X-X-X-X-X-X-X-X-X-X-X-X-X-X-X-X-X-X-X-X-X-X-X-X",
"-X-X-X-X-X-X-X-X-X-X-X-X-X-X-X-X-X-X-X-X-X-X-X-X-X-X-X-X-X-X-X-X-X-X-X-X-X-X-X-X-X-X-X-X-X-X-X-X-X-X-X-X-X-X-X-X-X-X-X-X-X-X-X-X",
"-X-X-X-X-X-X-X-X-X-X-X-X-X-X-X-X-X-X-X-X-X-X-X-X-X-X-X-X-X-X-X-X-X-X-X-X-X-X-X-X-X-X-X-X-X-X-X-X-X-X-X-X-X-X-X-X-X-X-X-X-X-X-X-X",
"-X-X-X-X-X-X-X-X-X-X-X-X-X-X-X-X-X-X-X-X-X-X-X-X-X-X-X-X-X-X-X-X-X-X-X-X-X-X-X-X-X-X-X-X-X-X-X-X-X-X-X-X-X-X-X-X-X-X-X-X-X-X-X-X",
"-X-X-X-X-X-X-X-X-X-X-X-X-X-X-X-X-X-X-X-X-X-X-X-X-X-X-X-X-X-X-X-X-X-X-X-X-X-X-X-X-X-X-X-X-X-X-X-X-X-X-X-X-X-X-X-X-X-X-X-X-X-X-X-X",
"-X-X-X-X-X-X-X-X-X-X-X-X-X-X-X+X+X'.+X+X+X+XOX+X+X-X-X-X-X-X-X-X-X-X-X-X-X-X-X-X+X+X'.{.+X+X'.+X+X-X-X-X-X-X-X-X-X-X-X-X-X-X-X-X",
"-X-X-X-X-X-X-X-X-X-X-X-X+X+XOX_.[.2XqXqXqXqX2X{.[.'.-X+X-X-X-X-X-X-X-X-X-X-X+X`._.[.2XqXqXqX9X3X`.`.+X-X-X-X-X-X-X-X-X-X-X-X-X-X",
"-X-X-X-X-X-X-X-X-X-X-X+XOX`.;XqXyX4XoXB.V.oX9XeXyX1X{.+X+X+X+X-X-X-X-X+XOX`.}.2XyXyX4X XZ.XX$X9XyX9X+X+XOX+X-X-X-X-X-X-X-X-X-X-X",
"-X-X-X-X-X-X-X-X-X-X+X'.[.qXeX XE s j b 7 w I i. XyXtX9X+X+X+X-X-X-X+X].;XqXyX#Xd.T N 1 : , K Y a.:XyXqX1X'.+X-X-X-X-X-X-X-X-X-X",
"-X-X-X-X-X-X-X-X-X+X`.[.yX:XV $ > N V 3 h v n @ 6 K v.eXyX;X'.+X+X+X^.1XuX$XT # 5 Z t y l v 7 > * 6 a.#XuX1X'.+X+X-X-X-X-X-X-X-X",
"-X-X-X-X-X-X-X-X+X^.3XyXXXB % > u w b m L b r , $ , t n $XtX9X{.OX].qXwXl.u * , w A d.U z a > * > u q j #XwX1X'.+X-X-X-X-X-X-X-X",
"-X-X-X-X-X-X-X-X`.!.yXN.: t t : b i.H b > 5 > % = * $ w 0 j.qXqX^.wXeXY , , = a oX#Xb J > & # 0 4 0 P , 3  XuX,X+X-X-X-X-X-X-X-X",
"-X-X-X-X-X-X-XOXQ.yX#X8 e t t K n d t > 7 0 4 > 1 , 0 v z 7 s.eXyX6XE > , a d.oXE 0 w < = & # t z V B < , K $XtX+X+X-X-X-X-X-X-X",
"-X-X-X-X-X-X-X_.,XeXY > > e P 0 l , % # > 1 # p t , h w : > > n.$Xn - $ U $Xn.i 7 6 , y % * > j w 2 A Y I z k 5X1XOX-X-X-X-X-X-X",
"-X-X-X-X-X-X+XY.wX.Xt 1 0 z q V , < a y * y j 9 7 q q t y N x i : # s k.XXW 7 w 7 : t # , 7 N t y R K t f E n M.9X`.-X-X-X-X-X-X",
"-X-X-X-X-X-X+XR.eXi.b t 1 = > : Z Z t 0 j 7 e 7 , 7 t Y R b : $ u s.v.Z a w 7 > % # y 7 7 7 : C I j u z 0 < , m.yX`.+X-X-X-X-X-X",
"-X-X-X-X-X+X`.!.eXI w , % % < U C t q q 6 0 t * # y R N # % > z v.I w 7 i % & & * u y # , t k c h b G q t # 1 F 5X1XOX-X-X-X-X-X",
"-X-X-X-X-X+Xz.2X#Xu t > % > < , , w q d < * $ u l N < % > < m m.I i % = & & & & ; = = a w M c J b w w , $ t q l  XtX'.-X-X-X-X-X",
"-X-X-X-X-X+Xr.uXE % % = # % , 7 G k N , ; < K k 0 < , l u i.#XZ $ 1 > % % - # 1 * = A z k H J h v s = t z w y 4  XtX'.-X-X-X-X-X",
"-X-X-X-X-X'.~.uXoXh.h.b.f.b.N..XN.b.k.N.f. XM.n.b.f.V.l.$XeXV.g.g.k.h.h.f.h.N.f.h.N. XM. XV.b.B.N.f.b.V. Xf.f.b.4XtX{.-X-X-X-X-X",
"-X-X-X-X-X^.}.uXuXuXuXuXuXuXuXuXuXuXuXuXuXuXuXuXuXuXuXuXuXuXyX,.5.yXuXuXuXuXuXuXuXuXuXuXuXuXuXuXuXuXuXuXuXuXuXuXuXyX+X-X-X-X-X-X",
"-X-X-X-X-XE.}.uXuXuXuXuXuXuXuXuXuXuXuXuXuXuXuXuXuXuXuXuXuXtXG.) ( G.yXuXuXuXuXuXuXuXuXuXuXuXuXuXuXuXuXuXuXuXuXuXuXyX+X-X-X-X-X-X",
"-X-X-X-X-X_.~.uXuXuXuXuXuXuXuXuXuXuXuXuXuXuXuXuXuXuXuXuX7X>.) X . X.,.).8XyXuXuXuXuXuXuXuXuXuXuXuXuXuXuXuXuXuXuXuXyX+X-X-X-X-X-X",
"-X-X-X-X-XOXw.uXuXuXuXuXuXuXuXuXuXuXuXuXuXuXuXuXuXuXuXyXP.5.o Q O.X.o.&.X.9.<XuXuXuXuXuXuXuXuXuXuXuXuXuXuXuXuXuXuXyX+X-X-X-X-X-X",
"-X-X-X-X-X+Xq.wXuXuXuXuXuXuXuXuXuXuXuXuXuXuXuXuXuXuXtX9.,.+./ +.)  .' :.A.G.6.tXuXuXuXuXuXuXuXuXuXuXuXuXuXuXuXuXuXyX+X-X-X-X-X-X",
"-X-X-X-X-X+Xz.=XuXuXuXuXuXuXuXuXuXuXuXuXuXuXuXuXuXuXwX&X8.-.;.8.<.F.P.H. ._ A.7XyXuXuXuXuXuXuXuXuXuXuXuXuXuXuXuXuXtX'.-X-X-X-X-X",
"-X-X-X-X-X+XT.!.uXuXuXuXuXuXuXuXuXuXuXuXuXuXuXuXuXtXA.X.=.).@.) X.5.$.Q [ K.P.I.tXuXuXuXuXuXuXuXuXuXuXuXuXuXuXuXuX1X'.-X-X-X-X-X",
"-X-X-X-X-X-X`.u.uXuXuXuXuXuXuXuXuXuXuXuXuXuXuXuXyXG.~ Q ...._ 5.K.&./ ~ =.=.U.yXuXuXuXuXuXuXuXuXuXuXuXuXuXuXuXuXuX{.+X-X-X-X-X-X",
"-X-X-X-X-X-X+Xr.yXuXuXuXuXuXuXuXuXuXuXuXuXuXyXJ.:.+.,.;.S.) ) { &.%.+.U.=.o . @.%XyXuXuXuXuXuXuXuXuXuXuXuXuXuXuXuX^.+X-X-X-X-X-X",
"-X-X-X-X-X-X+Xz.,XuXuXuXuXuXuXuXuXuXuXuXuXuXuX7X7X*X=.~ Q X ( &.` &.,.' . ) ! . ) 7.7XuXuXuXuXuXuXuXuXuXuXuXuXuXtX^.+X-X-X-X-X-X",
"-X-X-X-X-X-X-X^.Q.uXuXuXuXuXuXuXuXuXuXuXuXuXuXuX7XG.) ) ( =.@.+.&.&.X.Q . 7...5.S.7.H.uXuXuXuXuXuXuXuXuXuXuXuXuX}.+X-X-X-X-X-X-X",
"-X-X-X-X-X-X-XOXr.uXuXuXuXuXuXuXuXuXuXuXuXuX8X5.-.@.) &.*.&.} ' G.A.{ . . ( ' ] [ } &.*XuXuXuXuXuXuXuXuXuXuXuXwX`.+X-X-X-X-X-X-X",
"-X-X-X-X-X-X-X+Xt.!.uXuXuXuXuXuXuXuXuXuXuX(.] @.@.5.U.A.Q ! ! ~ O X.o X . ' ' :.P.U.%X<XuXuXuXuXuXuXuXuXuXuXuXQ.OX-X-X-X-X-X-X-X",
"-X-X-X-X-X-X-X-XOXq.5XuXuXuXuXuXuXuXuXuXuXA.J.%XJ.7.@.O ) ' . X o o { ) _ =.Q Q  .7.<XuXuXuXuXuXuXuXuXuXuXuX2X`.+X-X-X-X-X-X-X-X",
"-X-X-X-X-X-X-X-X+XT.~.uXuXuXuXuXuXuXuXuXuXyXtX%XX._ Q / ] { X X / ,./ Q U.*X .7.S.| P.7XyXuXuXuXuXuXuXuXuXuX].+X+X-X-X-X-X-X-X-X",
"-X-X-X-X-X-X-X-X-X+Xr.2XuXuXuXuXuXuXuXuXuX%X@.]  .{ ..@.7.o *.A.G.] ^ X X Q ] U.*X7X=X9.F.tXuXuXuXuXuXuXuX2X`.-X-X-X-X-X-X-X-X-X",
"-X-X-X-X-X-X-X-X-X+X_.3.qXuXuXuXuXuXuXtX%X' ( 5.<X%X=.X O #.A.:.] Q + / ` { 7.8XI.rXyXtXwXuXuXuXuXuXuXuXuXQ.+X-X-X-X-X-X-X-X-X-X",
"-X-X-X-X-X-X-X-X-X-X+XE.u.yXuXuXuXuXtX7.o.:.P.7XK. ./ ..=.o.' Q ( ( ) :.I.U.).6.=.] &.P.tXuXuXuXuXuXuXuX;X`.+X-X-X-X-X-X-X-X-X-X",
"-X-X-X-X-X-X-X-X-X-X-X+Xy.2XuXuXuXuXyXtX=XJ.9.] O <.&X7XK.Q X . o =.P.<XuXyX<X<X%XU.=.G.S.7XuXuXuXuXuXyX^.+X-X-X-X-X-X-X-X-X-X-X",
"-X-X-X-X-X-X-X-X-X-X-X-X_.q.2XuXuXuXuXuX<XJ.A.J.>XuXuXuX%X) ) @.U.P.F.7XuXuXuXuXuXuXuX&Xo.A.uXuXuXuXuX{.'.-X-X-X-X-X-X-X-X-X-X-X",
"-X-X-X-X-X-X-X-X-X-X-X-X+X^.r.qXuXuXuXuXuXuXuXuXuXuXuXuXJ.$.U.P.H.9...J.uXuXuXuXuXuXuXuXtXwXuXuXuXuX}._.+X-X-X-X-X-X-X-X-X-X-X-X",
"-X-X-X-X-X-X-X-X-X-X-X-X-X-Xz.|.uXuXuXuXuXuXuXuXuXuXyX8XF.wXL.P.X.Q ( *.wXuXuXuXuXuXuXuXuXuXuXuXyX].T.+X-X-X-X-X-X-X-X-X-X-X-X-X",
"-X-X-X-X-X-X-X-X-X-X-X-X-X-X'.r.!.uXuXuXuXuXuXuXwX(.P.&XtXyXyXpX7.[ *. .>.*XuXuXuXuXuXuXuXuXuXuX3X_.+X-X-X-X-X-X-X-X-X-X-X-X-X-X",
"-X-X-X-X-X-X-X-X-X-X-X-X-X-X-X+Xw.!.uXuXyXyXyXqX6.).rXyXyXyXyXyXiXK.>.yX<X>.7XyXyXyXyXiXyXyXuX2XY.+X-X-X-X-X-X-X-X-X-X-X-X-X-X-X",
"-X-X-X-X-X-X-X-X-X-X-X-X-X-X-X-X'.r.,XuXv.K S K c.C.f.D L R a.d.A a.g.T D B B Z R E D I  XtX;XT.+X-X-X-X-X-X-X-X-X-X-X-X-X-X-X-X",
"-X-X-X-X-X-X-X-X-X-X-X-X-X-X-X-X+X_.4.2X5XE b V.n.j 0 7 j b.V U a.a = > y * s E p ; V P 5XyX^.+X-X-X-X-X-X-X-X-X-X-X-X-X-X-X-X-X",
"-X-X-X-X-X-X-X-X-X-X-X-X-X-X-X-X-X+X^.y.2XyXp.Z # u l 2.s.w L K @ ; * , # N n 0 1 = Y eXwX^.'.+X-X-X-X-X-X-X-X-X-X-X-X-X-X-X-X-X",
"-X-X-X-X-X-X-X-X-X-X-X-X-X-X-X-X-X-X+XT.0.,X5Xn > a A i l 1.V > > % # > , n i - * E eXtXQ.'.+X-X-X-X-X-X-X-X-X-X-X-X-X-X-X-X-X-X",
"-X-X-X-X-X-X-X-X-X-X-X-X-X-X-X-X-X-X-X+X`.r.qX#XV l t v L 4 $ # $ % 1 d A = % < Y eX9Xy.'.+X-X-X-X-X-X-X-X-X-X-X-X-X-X-X-X-X-X-X",
"-X-X-X-X-X-X-X-X-X-X-X-X-X-X-X-X-X-X-X+X+XR.L.yX#Xn s t = * 7 y , s N y % & > b.eXwX/.+X-X-X-X-X-X-X-X-X-X-X-X-X-X-X-X-X-X-X-X-X",
"-X-X-X-X-X-X-X-X-X-X-X-X-X-X-X-X-X-X-X-X-X+Xe.u.yX0XA = & % # 6 n a % * > > W.yX1Xt.OX-X-X-X-X-X-X-X-X-X-X-X-X-X-X-X-X-X-X-X-X-X",
"-X-X-X-X-X-X-X-X-X-X-X-X-X-X-X-X-X-X-X-X-X-X+XR.u.yXN.s = # u a > * * = , d.eX1XQ.+X-X-X-X-X-X-X-X-X-X-X-X-X-X-X-X-X-X-X-X-X-X-X",
"-X-X-X-X-X-X-X-X-X-X-X-X-X-X-X-X-X-X-X-X-X-X-X+Xr.|.yX.XA t $ % : y , i B.yX2XY.+X-X-X-X-X-X-X-X-X-X-X-X-X-X-X-X-X-X-X-X-X-X-X-X",
"-X-X-X-X-X-X-X-X-X-X-X-X-X-X-X-X-X-X-X-X-X-X+X+X'.w.Q.yX.Xl 1 , , % < XXyX;XY.+X-X-X-X-X-X-X-X-X-X-X-X-X-X-X-X-X-X-X-X-X-X-X-X-X",
"-X-X-X-X-X-X-X-X-X-X-X-X-X-X-X-X-X-X-X-X-X-X-X-X+X+Xy.y.yX4Xl , 5 y B.eX{.^.+X-X-X-X-X-X-X-X-X-X-X-X-X-X-X-X-X-X-X-X-X-X-X-X-X-X",
"-X-X-X-X-X-X-X-X-X-X-X-X-X-X-X-X-X-X-X-X-X-X-X-X-X-X+Xe.R.yXoXB s XXyX,X^.+X+X-X-X-X-X-X-X-X-X-X-X-X-X-X-X-X-X-X-X-X-X-X-X-X-X-X",
"-X-X-X-X-X-X-X-X-X-X-X-X-X-X-X-X-X-X-X-X-X-X-X-X-X-X-X+Xy.~.yX4X:XyX[.^.+X+X-X-X-X-X-X-X-X-X-X-X-X-X-X-X-X-X-X-X-X-X-X-X-X-X-X-X",
"-X-X-X-X-X-X-X-X-X-X-X-X-X-X-X-X-X-X-X-X-X-X-X-X-X-X-X-X+Xe.w.!.!.x._.+X-X-X-X-X-X-X-X-X-X-X-X-X-X-X-X-X-X-X-X-X-X-X-X-X-X-X-X-X",
"-X-X-X-X-X-X-X-X-X-X-X-X-X-X-X-X-X-X-X-X-X-X-X-X-X-X-X-X-X+X`.^.^.'.+X-X-X-X-X-X-X-X-X-X-X-X-X-X-X-X-X-X-X-X-X-X-X-X-X-X-X-X-X-X",
"-X-X-X-X-X-X-X-X-X-X-X-X-X-X-X-X-X-X-X-X-X-X-X-X-X-X-X-X-X-X-X-X-X-X-X-X-X-X-X-X-X-X-X-X-X-X-X-X-X-X-X-X-X-X-X-X-X-X-X-X-X-X-X-X",
"-X-X-X-X-X-X-X-X-X-X-X-X-X-X-X-X-X-X-X-X-X-X-X-X-X-X-X-X-X-X-X-X-X-X-X-X-X-X-X-X-X-X-X-X-X-X-X-X-X-X-X-X-X-X-X-X-X-X-X-X-X-X-X-X",
"-X-X-X-X-X-X-X-X-X-X-X-X-X-X-X-X-X-X-X-X-X-X-X-X-X-X-X-X-X-X-X-X-X-X-X-X-X-X-X-X-X-X-X-X-X-X-X-X-X-X-X-X-X-X-X-X-X-X-X-X-X-X-X-X",
"-X-X-X-X-X-X-X-X-X-X-X-X-X-X-X-X-X-X-X-X-X-X-X-X-X-X-X-X-X-X-X-X-X-X-X-X-X-X-X-X-X-X-X-X-X-X-X-X-X-X-X-X-X-X-X-X-X-X-X-X-X-X-X-X",
"-X-X-X-X-X-X-X-X-X-X-X-X-X-X-X-X-X-X-X-X-X-X-X-X-X-X-X-X-X-X-X-X-X-X-X-X-X-X-X-X-X-X-X-X-X-X-X-X-X-X-X-X-X-X-X-X-X-X-X-X-X-X-X-X"
};
